
<svg width="23px" height="20px" viewBox="0 0 23 20" version="1.1" xmlns="http://www.w3.org/2000/svg" xmlns:xlink="http://www.w3.org/1999/xlink">
    <g id="Designs" stroke="none" stroke-width="1" fill="none" fill-rule="evenodd">
        <g id="Mobile---Category---Headphones" transform="translate(-328.000000, -35.000000)" fill="#FFFFFF" fill-rule="nonzero">
            <g id="Group-3" transform="translate(0.000000, 32.000000)">
                <g id="Group-2" transform="translate(24.000000, 0.000000)">
                    <g id="Combined-Shape-2" transform="translate(304.000000, 3.000000)">
                        <path d="M7.41036705,13.1946162 L7.41141989,13.1946162 C7.41229726,13.1946162 7.41317468,13.1944444 7.41405205,13.1944444 L19.6308923,13.1944444 C19.9316587,13.1944444 20.1961016,12.9991048 20.278751,12.715974 L22.974068,3.47986293 C23.0321507,3.28074363 22.9914402,3.0666775 22.8642198,2.90140336 C22.736824,2.73612922 22.5376583,2.63888889 22.3262093,2.63888889 L5.85634834,2.63888889 L5.37466567,0.516610616 C5.30605445,0.214753306 5.03266224,0 4.71680478,0 L0.673829254,0 C0.301643888,0 0,0.295328787 0,0.659722222 C0,1.02411566 0.301643888,1.31944444 0.673829254,1.31944444 L4.17633756,1.31944444 C4.2616191,1.69552046 6.48139514,11.4755588 6.60914193,12.0382126 C5.89302289,12.3429905 5.39063403,13.0420555 5.39063403,13.8541667 C5.39063403,14.9454572 6.2974959,15.8333333 7.41212179,15.8333333 L19.6308923,15.8333333 C20.0030776,15.8333333 20.3047215,15.5380045 20.3047215,15.1736111 C20.3047215,14.8092177 20.0030776,14.5138889 19.6308923,14.5138889 L7.41212179,14.5138889 C7.04063833,14.5138889 6.73829254,14.2178729 6.73829254,13.8541667 C6.73829254,13.4909759 7.03958545,13.1954753 7.41036705,13.1946162 L7.41036705,13.1946162 Z M21.4328591,3.95833333 L19.1225372,11.875 L7.95258901,11.875 L6.155711,3.95833333 L21.4328591,3.95833333 Z M6.57142857,17.9166667 C6.57142857,19.0653935 7.49268353,20 8.625,20 C9.75731647,20 10.6785714,19.0653935 10.6785714,17.9166667 C10.6785714,16.7679398 9.75731647,15.8333333 8.625,15.8333333 C7.49268353,15.8333333 6.57142857,16.7679398 6.57142857,17.9166667 Z M8.625,17.2222222 C9.00237939,17.2222222 9.30952381,17.533818 9.30952381,17.9166667 C9.30952381,18.2995153 9.00237939,18.6111111 8.625,18.6111111 C8.24762061,18.6111111 7.94047619,18.2995153 7.94047619,17.9166667 C7.94047619,17.533818 8.24762061,17.2222222 8.625,17.2222222 Z M16.4285714,17.9166667 C16.4285714,19.0653935 17.3498264,20 18.4821429,20 C19.6144593,20 20.5357143,19.0653935 20.5357143,17.9166667 C20.5357143,16.7679398 19.6144593,15.8333333 18.4821429,15.8333333 C17.3498264,15.8333333 16.4285714,16.7679398 16.4285714,17.9166667 Z M18.4821429,17.2222222 C18.8595222,17.2222222 19.1666667,17.533818 19.1666667,17.9166667 C19.1666667,18.2995153 18.8595222,18.6111111 18.4821429,18.6111111 C18.1047635,18.6111111 17.797619,18.2995153 17.797619,17.9166667 C17.797619,17.533818 18.1047635,17.2222222 18.4821429,17.2222222 Z" id="Combined-Shape"></path>
                    </g>
                </g>
            </g>
        </g>
    </g>
</svg>