
<svg width="24px" height="24px" viewBox="0 0 24 24" version="1.1" xmlns="http://www.w3.org/2000/svg" xmlns:xlink="http://www.w3.org/1999/xlink">
    <g id="Designs" stroke="none" stroke-width="1" fill="none" fill-rule="evenodd">
        <g id="Mobile---Home" transform="translate(-216.000000, -4365.000000)" fill="#FFFFFF" fill-rule="nonzero">
            <g id="Group-16" transform="translate(0.000000, 3773.000000)">
                <g id="Group-30" transform="translate(136.000000, 592.000000)">
                    <path d="M92,2.163 C95.204,2.163 95.584,2.175 96.85,2.233 C100.102,2.381 101.621,3.924 101.769,7.152 C101.827,8.417 101.838,8.797 101.838,12.001 C101.838,15.206 101.826,15.585 101.769,16.85 C101.62,20.075 100.105,21.621 96.85,21.769 C95.584,21.827 95.206,21.839 92,21.839 C88.796,21.839 88.416,21.827 87.151,21.769 C83.891,21.62 82.38,20.07 82.232,16.849 C82.174,15.584 82.162,15.205 82.162,12 C82.162,8.796 82.175,8.417 82.232,7.151 C82.381,3.924 83.896,2.38 87.151,2.232 C88.417,2.175 88.796,2.163 92,2.163 L92,2.163 Z M92,0 C88.741,0 88.333,0.014 87.053,0.072 C82.695,0.272 80.273,2.69 80.073,7.052 C80.014,8.333 80,8.741 80,12 C80,15.259 80.014,15.668 80.072,16.948 C80.272,21.306 82.69,23.728 87.052,23.928 C88.333,23.986 88.741,24 92,24 C95.259,24 95.668,23.986 96.948,23.928 C101.302,23.728 103.73,21.31 103.927,16.948 C103.986,15.668 104,15.259 104,12 C104,8.741 103.986,8.333 103.928,7.053 C103.732,2.699 101.311,0.273 96.949,0.073 C95.668,0.014 95.259,0 92,0 Z M92,5.838 C88.597,5.838 85.838,8.597 85.838,12 C85.838,15.403 88.597,18.163 92,18.163 C95.403,18.163 98.162,15.404 98.162,12 C98.162,8.597 95.403,5.838 92,5.838 Z M92,16 C89.791,16 88,14.21 88,12 C88,9.791 89.791,8 92,8 C94.209,8 96,9.791 96,12 C96,14.21 94.209,16 92,16 Z M97.8463889,4.155 C96.7408333,4.155 95.845,5.94666667 95.845,8.155 C95.845,10.3633333 96.7408333,12.155 97.8463889,12.155 C98.9505556,12.155 99.845,10.3633333 99.845,8.155 C99.845,5.94666667 98.9505556,4.155 97.8463889,4.155 Z" id="Shape"></path>
                </g>
            </g>
        </g>
    </g>
</svg>