
<svg width="24px" height="20px" viewBox="0 0 24 20" version="1.1" xmlns="http://www.w3.org/2000/svg" xmlns:xlink="http://www.w3.org/1999/xlink">
    <g id="Designs" stroke="none" stroke-width="1" fill="none" fill-rule="evenodd">
        <g id="Mobile---Home" transform="translate(-176.000000, -4367.000000)" fill="#FFFFFF" fill-rule="nonzero">
            <g id="Group-16" transform="translate(0.000000, 3773.000000)">
                <g id="Group-30" transform="translate(136.000000, 592.000000)">
                    <path d="M64,4.557 C63.117,4.949 62.168,5.213 61.172,5.332 C62.189,4.723 62.97,3.758 63.337,2.608 C62.386,3.172 61.332,3.582 60.21,3.803 C59.313,2.846 58.032,2.248 56.616,2.248 C53.437,2.248 51.101,5.214 51.819,8.293 C47.728,8.088 44.1,6.128 41.671,3.149 C40.381,5.362 41.002,8.257 43.194,9.723 C42.388,9.697 41.628,9.476 40.965,9.107 C40.911,11.388 42.546,13.522 44.914,13.997 C44.221,14.185 43.462,14.229 42.69,14.081 C43.316,16.037 45.134,17.46 47.29,17.5 C45.22,19.123 42.612,19.848 40,19.54 C42.179,20.937 44.768,21.752 47.548,21.752 C56.69,21.752 61.855,14.031 61.543,7.106 C62.505,6.411 63.34,5.544 64,4.557 Z" id="Path"></path>
                </g>
            </g>
        </g>
    </g>
</svg>